<?xml version="1.0" ?>
<!DOCTYPE svg  PUBLIC '-//W3C//DTD SVG 1.1//EN'  'http://www.w3.org/Graphics/SVG/1.1/DTD/svg11.dtd'>
<svg enable-background="new 0 0 512 512" id="Layer_1" version="1.1" viewBox="0 0 512 512" xml:space="preserve" xmlns="http://www.w3.org/2000/svg" xmlns:xlink="http://www.w3.org/1999/xlink">
  <g fill="#000000">
    <path d="M112.791,274.785c0,0-0.63,158.141,65.542,124.473C241.046,367.35,112.791,274.785,112.791,274.785z"/>
    <path d="M227.763,281.658c0,0-0.552,134.973,55.937,106.233C337.227,360.659,227.763,281.658,227.763,281.658z"/>
    <path d="M180.662,227.842c53.519-27.224-55.91-106.233-55.91-106.233S124.191,256.58,180.662,227.842z" />
    <path d="M336.482,226.353c0,0-0.578,134.972,55.928,106.233C445.921,305.362,336.482,226.353,336.482,226.353z"/>
    <path d="M233.437,66.303c0,0-0.543,134.972,55.928,106.233C342.893,145.303,233.437,66.303,233.437,66.303z" />
    <path d="M265.152,260.136c39.063-19.869-40.822-77.539-40.822-77.539S223.927,281.125,265.152,260.136z" />
    <path d="M400.852,219.707c39.063-19.868-40.823-77.539-40.823-77.539S359.626,240.696,400.852,219.707z" />
  </g></svg>